<svg width="20" height="20" viewBox="0 0 20 20" fill="none" xmlns="http://www.w3.org/2000/svg">
<path d="M19.5973 0H9.12828C8.90571 0 8.72557 0.197359 8.72557 0.441189V6.24871L0.266323 9.58528C0.106583 9.64823 0 9.81441 0 10.0003V19.5576C0 19.8012 0.180144 19.9988 0.402706 19.9988L9.12828 20H19.5973C19.8196 20 20 19.8023 20 19.5588V0.441189C20 0.197359 19.8196 0 19.5973 0ZM0.805412 10.3106L8.72557 7.18639V19.1176L0.805412 19.1164V10.3106V10.3106ZM19.1946 19.1176H9.53098V0.882379H19.1946V19.1176V19.1176Z" fill="#629EF8"/>
<path d="M12.6166 8.5288H16.1064C16.3287 8.5288 16.5091 8.33144 16.5091 8.08761V4.26455C16.5091 4.02072 16.3287 3.82336 16.1064 3.82336H12.6166C12.3943 3.82336 12.2139 4.02072 12.2139 4.26455V8.08761C12.2139 8.33144 12.3943 8.5288 12.6166 8.5288ZM13.0193 4.70574H15.7037V7.64642H13.0193V4.70574Z" fill="#629EF8"/>
<path d="M16.1075 11.4703H12.6184C12.3961 11.4703 12.2157 11.668 12.2157 11.9115V15.7346C12.2157 15.9781 12.3961 16.1758 12.6184 16.1758H16.1075C16.3297 16.1758 16.5102 15.9781 16.5102 15.7346V11.9115C16.5102 11.668 16.3297 11.4703 16.1075 11.4703ZM15.7047 15.2934H13.0211V12.3527H15.7047V15.2934Z" fill="#629EF8"/>
</svg>
