<svg width="628" height="403" viewBox="0 0 628 403" fill="none" xmlns="http://www.w3.org/2000/svg">
<g clip-path="url(#clip0_11_356)">
<path d="M438.312 271.785C373.707 271.788 317.495 223.963 309.191 158.733L310.778 158.534C318.98 222.959 374.506 270.193 438.313 270.197C443.734 270.197 449.15 269.858 454.528 269.182C524.902 260.36 574.923 196.369 566.032 126.536L567.619 126.336C576.62 197.038 525.978 261.826 454.729 270.757C449.284 271.441 443.801 271.784 438.312 271.785Z" fill="#CE3A13"/>
<path d="M489.83 64.0019C485.621 52.9594 486.004 40.7099 490.896 29.948C495.788 19.1861 504.788 10.7935 515.916 6.6164C527.044 2.43929 539.388 2.81987 550.233 7.67441C561.079 12.5289 569.536 21.4598 573.745 32.5022L572.249 33.0642C568.19 22.4156 560.034 13.8033 549.576 9.12186C539.117 4.44045 527.213 4.0734 516.482 8.10147C505.751 12.1295 497.072 20.2228 492.355 30.6008C487.637 40.9787 487.267 52.7913 491.327 63.4399L489.83 64.0019Z" fill="#CE3A13"/>
<path d="M619.78 141.697L538.465 141.697C536.286 141.695 534.197 140.835 532.656 139.306C531.115 137.777 530.248 135.703 530.246 133.541L530.246 26.6973C530.248 24.5347 531.115 22.4615 532.656 20.9324C534.197 19.4032 536.286 18.5431 538.465 18.5406L619.78 18.5406C621.96 18.5431 624.049 19.4032 625.59 20.9324C627.131 22.4615 627.998 24.5347 628 26.6973L628 133.541C627.998 135.703 627.131 137.777 625.59 139.306C624.049 140.835 621.96 141.695 619.78 141.697Z" fill="#E6E6E6"/>
<path d="M587.473 135.296L544.181 135.296C542.14 135.294 540.184 134.488 538.74 133.056C537.297 131.624 536.485 129.682 536.483 127.657L536.483 32.5809C536.485 30.5556 537.297 28.6139 538.74 27.1818C540.184 25.7498 542.14 24.9442 544.181 24.942L614.065 24.942C616.106 24.9443 618.062 25.7498 619.505 27.1819C620.949 28.614 621.76 30.5556 621.763 32.5809L621.763 101.27C621.752 110.291 618.136 118.94 611.708 125.319C605.28 131.698 596.564 135.286 587.473 135.296Z" fill="white"/>
<path d="M607.093 72.6212L551.153 72.6212C550.669 72.6212 550.205 72.4305 549.863 72.0909C549.52 71.7514 549.328 71.2909 549.328 70.8108C549.328 70.3306 549.52 69.8701 549.863 69.5306C550.205 69.1911 550.669 69.0004 551.153 69.0004L607.093 69.0004C607.577 69.0004 608.041 69.1911 608.383 69.5306C608.725 69.8701 608.918 70.3306 608.918 70.8108C608.918 71.2909 608.725 71.7514 608.383 72.0909C608.041 72.4305 607.577 72.6212 607.093 72.6212Z" fill="#E4E4E4"/>
<path d="M607.093 79.7749L551.153 79.7749C550.669 79.7739 550.206 79.5827 549.865 79.2433C549.524 78.9039 549.332 78.444 549.332 77.9644C549.332 77.4849 549.524 77.025 549.865 76.6855C550.206 76.3461 550.669 76.1549 551.153 76.1539L607.093 76.1539C607.577 76.1539 608.041 76.3447 608.383 76.6842C608.726 77.0237 608.918 77.4843 608.918 77.9644C608.918 78.4446 608.726 78.9051 608.383 79.2446C608.041 79.5842 607.577 79.7749 607.093 79.7749Z" fill="#E4E4E4"/>
<path d="M575.401 86.9287L551.153 86.9287C550.669 86.9287 550.205 86.738 549.862 86.3985C549.52 86.0589 549.328 85.5984 549.328 85.1182C549.328 84.6381 549.52 84.1776 549.862 83.838C550.205 83.4985 550.669 83.3077 551.153 83.3077L575.401 83.3077C575.885 83.3077 576.349 83.4985 576.692 83.838C577.034 84.1776 577.226 84.6381 577.226 85.1182C577.226 85.5984 577.034 86.0589 576.692 86.3985C576.349 86.738 575.885 86.9287 575.401 86.9287Z" fill="#E4E4E4"/>
<path d="M607.093 43.4071L551.153 43.4071C550.669 43.4071 550.205 43.2163 549.863 42.8768C549.52 42.5373 549.328 42.0768 549.328 41.5967C549.328 41.1165 549.52 40.656 549.863 40.3165C550.205 39.977 550.669 39.7863 551.153 39.7863L607.093 39.7863C607.577 39.7863 608.041 39.977 608.383 40.3165C608.725 40.656 608.918 41.1165 608.918 41.5967C608.918 42.0768 608.725 42.5373 608.383 42.8768C608.041 43.2163 607.577 43.4071 607.093 43.4071Z" fill="#E4E4E4"/>
<path d="M607.093 50.5609L551.153 50.5609C550.669 50.5609 550.205 50.3702 549.862 50.0306C549.52 49.6911 549.328 49.2306 549.328 48.7504C549.328 48.2703 549.52 47.8098 549.862 47.4702C550.205 47.1307 550.669 46.9399 551.153 46.9399L607.093 46.9399C607.577 46.9399 608.041 47.1307 608.383 47.4702C608.726 47.8098 608.918 48.2703 608.918 48.7504C608.918 49.2306 608.726 49.6911 608.383 50.0306C608.041 50.3702 607.577 50.5609 607.093 50.5609Z" fill="#E4E4E4"/>
<path d="M575.402 57.7147L551.153 57.7147C550.669 57.7137 550.206 57.5226 549.865 57.1831C549.524 56.8437 549.332 56.3838 549.332 55.9043C549.332 55.4247 549.524 54.9648 549.865 54.6254C550.206 54.286 550.669 54.0948 551.153 54.0937L575.402 54.0937C575.885 54.0948 576.348 54.286 576.689 54.6254C577.031 54.9648 577.222 55.4247 577.222 55.9043C577.222 56.3838 577.031 56.8437 576.689 57.1831C576.348 57.5226 575.885 57.7137 575.402 57.7147Z" fill="#E4E4E4"/>
<path d="M607.093 102.858L551.153 102.858C550.669 102.858 550.205 102.667 549.863 102.327C549.52 101.988 549.328 101.527 549.328 101.047C549.328 100.567 549.52 100.107 549.863 99.7671C550.205 99.4276 550.669 99.2368 551.153 99.2368L607.093 99.2368C607.577 99.2368 608.041 99.4276 608.383 99.7671C608.725 100.107 608.918 100.567 608.918 101.047C608.918 101.527 608.725 101.988 608.383 102.327C608.041 102.667 607.577 102.858 607.093 102.858Z" fill="#629EF8"/>
<path d="M559.903 110.011L551.153 110.011C550.669 110.01 550.206 109.819 549.865 109.48C549.524 109.14 549.332 108.681 549.332 108.201C549.332 107.721 549.524 107.262 549.865 106.922C550.206 106.583 550.669 106.392 551.153 106.391L559.903 106.391C560.387 106.391 560.851 106.581 561.193 106.921C561.535 107.26 561.728 107.721 561.728 108.201C561.728 108.681 561.535 109.142 561.193 109.481C560.851 109.821 560.387 110.011 559.903 110.011Z" fill="#629EF8"/>
<path d="M575.401 117.165L551.153 117.165C550.669 117.165 550.205 116.975 549.862 116.635C549.52 116.295 549.328 115.835 549.328 115.355C549.328 114.875 549.52 114.414 549.862 114.075C550.205 113.735 550.669 113.544 551.153 113.544L575.401 113.544C575.885 113.544 576.349 113.735 576.692 114.075C577.034 114.414 577.226 114.875 577.226 115.355C577.226 115.835 577.034 116.295 576.692 116.635C576.349 116.975 575.885 117.165 575.401 117.165Z" fill="#629EF8"/>
<path d="M310.404 138.116C303.358 119.605 304.008 99.0749 312.211 81.0396C320.415 63.0043 335.5 48.94 354.151 41.939C372.802 34.9381 393.491 35.5735 411.67 43.7057C429.848 51.8378 444.029 66.8009 451.093 85.3052L449.596 85.8671C446.178 76.892 441.012 68.6729 434.393 61.6793C427.774 54.6858 419.831 49.0548 411.018 45.108C402.205 41.1612 392.695 38.976 383.031 38.6772C373.367 38.3783 363.739 39.9717 354.695 43.3663C345.652 46.7609 337.371 51.8902 330.326 58.4612C323.281 65.0322 317.609 72.9162 313.635 81.6627C309.661 90.4093 307.462 99.8471 307.165 109.437C306.867 119.027 308.476 128.581 311.9 137.554L310.404 138.116Z" fill="#CE3A13"/>
<path d="M450.23 16.4189C454.447 16.4189 457.865 13.0268 457.865 8.84234C457.865 4.6579 454.447 1.26575 450.23 1.26575C446.013 1.26575 442.595 4.6579 442.595 8.84234C442.595 13.0268 446.013 16.4189 450.23 16.4189Z" fill="#FEE800"/>
<path d="M460.628 234.684C464.845 234.684 468.263 231.292 468.263 227.107C468.263 222.923 464.845 219.531 460.628 219.531C456.411 219.531 452.993 222.923 452.993 227.107C452.993 231.292 456.411 234.684 460.628 234.684Z" fill="#FEE800"/>
<path d="M264.67 54.5161C268.886 54.5161 272.305 51.1239 272.305 46.9395C272.305 42.7551 268.886 39.3629 264.67 39.3629C260.453 39.3629 257.034 42.7551 257.034 46.9395C257.034 51.1239 260.453 54.5161 264.67 54.5161Z" fill="#FEE800"/>
<path d="M370.082 358.263L195.292 358.263C190.608 358.257 186.117 356.408 182.805 353.122C179.493 349.835 177.629 345.378 177.624 340.73L177.624 111.065C177.629 106.417 179.493 101.96 182.805 98.6734C186.117 95.3865 190.608 93.5376 195.292 93.5323L370.082 93.5323C374.766 93.5376 379.257 95.3865 382.57 98.6734C385.882 101.96 387.745 106.417 387.75 111.065L387.75 340.73C387.745 345.378 385.882 349.835 382.57 353.122C379.257 356.408 374.766 358.257 370.082 358.263Z" fill="#E6E6E6"/>
<path d="M303.37 344.047L207.579 344.047C203.314 344.042 199.224 342.359 196.208 339.366C193.192 336.373 191.496 332.315 191.491 328.083L191.491 123.712C191.496 119.48 193.192 115.422 196.208 112.429C199.224 109.437 203.314 107.753 207.579 107.748L357.795 107.748C362.061 107.753 366.15 109.437 369.166 112.429C372.182 115.422 373.878 119.48 373.883 123.712L373.883 274.075C373.862 292.626 366.426 310.412 353.207 323.529C339.988 336.647 322.065 344.026 303.37 344.047Z" fill="white"/>
<path d="M342.81 146.984L222.564 146.984C222.048 146.984 221.538 146.884 221.061 146.689C220.585 146.494 220.152 146.207 219.787 145.846C219.423 145.484 219.133 145.055 218.936 144.583C218.738 144.11 218.637 143.604 218.637 143.092C218.637 142.581 218.738 142.074 218.936 141.602C219.133 141.129 219.423 140.7 219.787 140.338C220.152 139.977 220.585 139.69 221.061 139.495C221.538 139.3 222.048 139.2 222.564 139.201L342.81 139.201C343.326 139.2 343.836 139.3 344.313 139.495C344.789 139.69 345.222 139.977 345.587 140.338C345.952 140.7 346.241 141.129 346.439 141.602C346.636 142.074 346.738 142.581 346.738 143.092C346.738 143.604 346.636 144.11 346.439 144.583C346.241 145.055 345.952 145.484 345.587 145.846C345.222 146.207 344.789 146.494 344.313 146.689C343.836 146.884 343.326 146.984 342.81 146.984Z" fill="#629EF8"/>
<path d="M342.81 162.361L222.564 162.361C221.524 162.361 220.526 161.951 219.791 161.221C219.055 160.491 218.642 159.501 218.642 158.469C218.642 157.437 219.055 156.447 219.791 155.717C220.526 154.988 221.524 154.578 222.564 154.578L342.81 154.578C343.85 154.578 344.848 154.988 345.583 155.717C346.319 156.447 346.732 157.437 346.732 158.469C346.732 159.501 346.319 160.491 345.583 161.221C344.848 161.951 343.85 162.361 342.81 162.361Z" fill="#629EF8"/>
<path d="M274.688 177.738L222.564 177.738C221.524 177.738 220.526 177.328 219.791 176.598C219.055 175.869 218.642 174.879 218.642 173.847C218.642 172.814 219.055 171.825 219.791 171.095C220.526 170.365 221.524 169.955 222.564 169.955L274.688 169.955C275.728 169.955 276.726 170.365 277.461 171.095C278.197 171.825 278.61 172.814 278.61 173.847C278.61 174.879 278.197 175.869 277.461 176.598C276.726 177.328 275.728 177.738 274.688 177.738Z" fill="#629EF8"/>
<path d="M342.81 209.944L222.564 209.944C222.048 209.945 221.538 209.845 221.061 209.65C220.585 209.454 220.152 209.168 219.787 208.806C219.423 208.445 219.133 208.016 218.936 207.543C218.738 207.071 218.637 206.564 218.637 206.053C218.637 205.541 218.738 205.035 218.936 204.562C219.133 204.09 219.423 203.661 219.787 203.299C220.152 202.938 220.585 202.651 221.061 202.456C221.538 202.261 222.048 202.161 222.564 202.161L342.81 202.161C343.326 202.161 343.836 202.261 344.313 202.456C344.789 202.651 345.222 202.938 345.587 203.299C345.952 203.661 346.241 204.09 346.439 204.562C346.636 205.035 346.738 205.541 346.738 206.053C346.738 206.564 346.636 207.071 346.439 207.543C346.241 208.016 345.952 208.445 345.587 208.806C345.222 209.168 344.789 209.454 344.313 209.65C343.836 209.845 343.326 209.945 342.81 209.944Z" fill="#E4E4E4"/>
<path d="M342.81 225.322L222.564 225.322C221.524 225.322 220.526 224.912 219.791 224.182C219.055 223.452 218.642 222.462 218.642 221.43C218.642 220.398 219.055 219.408 219.791 218.678C220.526 217.948 221.524 217.538 222.564 217.538L342.81 217.538C343.85 217.538 344.848 217.948 345.583 218.678C346.319 219.408 346.732 220.398 346.732 221.43C346.732 222.462 346.319 223.452 345.583 224.182C344.848 224.912 343.85 225.322 342.81 225.322Z" fill="#E4E4E4"/>
<path d="M274.688 240.699L222.564 240.699C221.524 240.699 220.526 240.289 219.791 239.559C219.055 238.829 218.642 237.839 218.642 236.807C218.642 235.775 219.055 234.785 219.791 234.055C220.526 233.326 221.524 232.916 222.564 232.916L274.688 232.916C275.728 232.916 276.726 233.326 277.461 234.055C278.197 234.785 278.61 235.775 278.61 236.807C278.61 237.839 278.197 238.829 277.461 239.559C276.726 240.289 275.728 240.699 274.688 240.699Z" fill="#E4E4E4"/>
<path d="M342.81 272.905L222.564 272.905C222.048 272.906 221.538 272.806 221.061 272.61C220.585 272.415 220.152 272.129 219.787 271.767C219.423 271.406 219.133 270.977 218.936 270.504C218.738 270.032 218.637 269.525 218.637 269.013C218.637 268.502 218.738 267.995 218.936 267.523C219.133 267.05 219.423 266.621 219.787 266.26C220.152 265.898 220.585 265.612 221.061 265.417C221.538 265.221 222.048 265.121 222.564 265.122L342.81 265.122C343.326 265.121 343.836 265.221 344.313 265.417C344.789 265.612 345.222 265.898 345.587 266.26C345.952 266.621 346.241 267.05 346.439 267.523C346.636 267.995 346.738 268.502 346.738 269.013C346.738 269.525 346.636 270.032 346.439 270.504C346.241 270.977 345.952 271.406 345.587 271.767C345.222 272.129 344.789 272.415 344.313 272.61C343.836 272.806 343.326 272.906 342.81 272.905Z" fill="#E4E4E4"/>
<path d="M342.81 288.282L222.564 288.282C221.524 288.282 220.526 287.872 219.791 287.142C219.055 286.413 218.642 285.423 218.642 284.391C218.642 283.358 219.055 282.369 219.791 281.639C220.526 280.909 221.524 280.499 222.564 280.499L342.81 280.499C343.85 280.499 344.848 280.909 345.583 281.639C346.319 282.369 346.732 283.358 346.732 284.391C346.732 285.423 346.319 286.413 345.583 287.142C344.848 287.872 343.85 288.282 342.81 288.282Z" fill="#E4E4E4"/>
<path d="M274.688 303.66L222.564 303.66C221.525 303.658 220.529 303.248 219.794 302.518C219.06 301.788 218.648 300.799 218.648 299.768C218.648 298.737 219.06 297.748 219.794 297.018C220.529 296.288 221.525 295.878 222.564 295.876L274.688 295.876C275.727 295.878 276.723 296.288 277.457 297.018C278.192 297.748 278.604 298.737 278.604 299.768C278.604 300.799 278.192 301.788 277.457 302.518C276.723 303.248 275.727 303.658 274.688 303.66Z" fill="#E4E4E4"/>
<path d="M504.754 187.732L416.237 187.732C413.864 187.729 411.59 186.793 409.913 185.128C408.235 183.463 407.292 181.207 407.289 178.853L407.289 62.5455C407.292 60.1915 408.235 57.9346 409.913 56.2701C411.59 54.6055 413.864 53.6692 416.237 53.6665L504.754 53.6665C507.126 53.6692 509.4 54.6055 511.078 56.2701C512.755 57.9346 513.699 60.1915 513.701 62.5455L513.701 178.853C513.699 181.207 512.755 183.463 511.078 185.128C509.4 186.793 507.126 187.729 504.754 187.732Z" fill="#E6E6E6"/>
<path d="M471.94 180.728L422.459 180.728C420.246 180.725 418.125 179.852 416.561 178.3C414.997 176.748 414.117 174.643 414.114 172.448L414.114 68.9505C414.117 66.7551 414.997 64.6504 416.561 63.098C418.125 61.5456 420.246 60.6723 422.459 60.6698L498.532 60.6698C500.744 60.6723 502.865 61.5455 504.43 63.0979C505.994 64.6503 506.874 66.755 506.876 68.9505L506.876 146.06C506.866 155.252 503.182 164.063 496.632 170.563C490.083 177.062 481.202 180.718 471.94 180.728Z" fill="white"/>
<path d="M490.943 80.7354L430.048 80.7354C429.521 80.7354 429.016 80.5278 428.643 80.1582C428.271 79.7886 428.062 79.2873 428.062 78.7647C428.062 78.242 428.271 77.7408 428.643 77.3712C429.016 77.0016 429.521 76.7939 430.048 76.7939L490.943 76.7939C491.47 76.7939 491.975 77.0016 492.347 77.3712C492.72 77.7408 492.929 78.242 492.929 78.7647C492.929 79.2873 492.72 79.7886 492.347 80.1582C491.975 80.5278 491.47 80.7354 490.943 80.7354Z" fill="#E4E4E4"/>
<path d="M490.943 88.5228L430.048 88.5228C429.522 88.5217 429.017 88.3136 428.646 87.9441C428.274 87.5746 428.065 87.0739 428.065 86.5519C428.065 86.0299 428.274 85.5292 428.646 85.1597C429.017 84.7902 429.522 84.5821 430.048 84.5811L490.943 84.5811C491.469 84.5821 491.973 84.7902 492.345 85.1597C492.716 85.5292 492.925 86.0299 492.925 86.5519C492.925 87.0739 492.716 87.5746 492.345 87.9441C491.973 88.3136 491.469 88.5217 490.943 88.5228Z" fill="#E4E4E4"/>
<path d="M456.444 96.3102L430.048 96.3102C429.522 96.3092 429.017 96.1011 428.646 95.7316C428.274 95.3621 428.065 94.8614 428.065 94.3394C428.065 93.8174 428.274 93.3167 428.646 92.9472C429.017 92.5777 429.522 92.3696 430.048 92.3685L456.444 92.3685C456.97 92.3696 457.474 92.5777 457.846 92.9472C458.218 93.3167 458.426 93.8174 458.426 94.3394C458.426 94.8614 458.218 95.3621 457.846 95.7316C457.474 96.1011 456.97 96.3092 456.444 96.3102Z" fill="#E4E4E4"/>
<path d="M490.943 112.62L430.048 112.62C429.521 112.62 429.016 112.412 428.643 112.043C428.271 111.673 428.062 111.172 428.062 110.649C428.062 110.127 428.271 109.625 428.643 109.256C429.016 108.886 429.521 108.679 430.048 108.679L490.943 108.679C491.47 108.679 491.975 108.886 492.347 109.256C492.72 109.625 492.929 110.127 492.929 110.649C492.929 111.172 492.72 111.673 492.347 112.043C491.975 112.412 491.47 112.62 490.943 112.62Z" fill="#629EF8"/>
<path d="M474.946 120.408L430.048 120.408C429.521 120.408 429.016 120.2 428.643 119.83C428.271 119.461 428.061 118.959 428.061 118.437C428.061 117.914 428.271 117.413 428.643 117.043C429.016 116.673 429.521 116.466 430.048 116.466L474.946 116.466C475.473 116.466 475.978 116.673 476.351 117.043C476.723 117.413 476.932 117.914 476.932 118.437C476.932 118.959 476.723 119.461 476.351 119.83C475.978 120.2 475.473 120.408 474.946 120.408Z" fill="#629EF8"/>
<path d="M456.444 128.195L430.048 128.195C429.522 128.194 429.017 127.986 428.646 127.616C428.274 127.247 428.065 126.746 428.065 126.224C428.065 125.702 428.274 125.201 428.646 124.832C429.017 124.462 429.522 124.254 430.048 124.253L456.444 124.253C456.97 124.254 457.474 124.462 457.846 124.832C458.218 125.201 458.426 125.702 458.426 126.224C458.426 126.746 458.218 127.247 457.846 127.616C457.474 127.986 456.97 128.194 456.444 128.195Z" fill="#629EF8"/>
<path d="M490.943 144.505L430.048 144.505C429.521 144.505 429.016 144.297 428.643 143.927C428.271 143.558 428.062 143.057 428.062 142.534C428.062 142.011 428.271 141.51 428.643 141.14C429.016 140.771 429.521 140.563 430.048 140.563L490.943 140.563C491.47 140.563 491.975 140.771 492.347 141.14C492.72 141.51 492.929 142.011 492.929 142.534C492.929 143.057 492.72 143.558 492.347 143.927C491.975 144.297 491.47 144.505 490.943 144.505Z" fill="#E4E4E4"/>
<path d="M490.943 152.292L430.048 152.292C429.521 152.292 429.016 152.084 428.643 151.715C428.271 151.345 428.061 150.844 428.061 150.321C428.061 149.799 428.271 149.297 428.643 148.928C429.016 148.558 429.521 148.35 430.048 148.35L490.943 148.35C491.47 148.35 491.975 148.558 492.347 148.928C492.72 149.297 492.929 149.799 492.929 150.321C492.929 150.844 492.72 151.345 492.347 151.715C491.975 152.084 491.47 152.292 490.943 152.292Z" fill="#E4E4E4"/>
<path d="M456.444 160.08L430.048 160.08C429.522 160.078 429.017 159.87 428.646 159.501C428.274 159.131 428.065 158.631 428.065 158.109C428.065 157.587 428.274 157.086 428.646 156.716C429.017 156.347 429.522 156.139 430.048 156.138L456.444 156.138C456.97 156.139 457.474 156.347 457.846 156.716C458.218 157.086 458.426 157.587 458.426 158.109C458.426 158.631 458.218 159.131 457.846 159.501C457.474 159.87 456.97 160.078 456.444 160.08Z" fill="#E4E4E4"/>
<path d="M103.494 227.69C104.172 226.959 104.68 226.088 104.982 225.14C105.284 224.193 105.374 223.191 105.243 222.205C105.113 221.22 104.767 220.275 104.228 219.436C103.69 218.598 102.973 217.887 102.128 217.354L107.743 193.844L95.859 198.152L92.3488 219.817C91.5395 221.285 91.3011 222.997 91.6787 224.628C92.0563 226.259 93.0236 227.696 94.3975 228.666C95.7713 229.637 97.4562 230.073 99.1328 229.894C100.809 229.714 102.361 228.93 103.494 227.69L103.494 227.69Z" fill="#FFB8B8"/>
<path d="M132.073 129.172L127.304 141.342C127.304 141.342 129.348 153.512 125.941 156.217C122.534 158.921 123.897 158.921 123.897 160.949C123.78 162.404 123.355 163.819 122.651 165.1C121.946 166.381 120.978 167.501 119.809 168.387C117.084 170.415 104.819 211.659 104.819 211.659L92.5548 211.659C92.951 208.516 92.951 205.336 92.5548 202.193C91.8734 197.46 94.5989 185.29 95.9616 183.262C97.3243 181.233 95.9616 178.529 95.9616 174.472C95.9616 170.415 98.687 168.387 98.687 161.626C98.687 154.864 106.863 102.127 106.182 96.0415C105.501 89.9564 112.995 84.5474 112.995 84.5474L119.809 84.5474L132.073 129.172Z" fill="#629EF8"/>
<path d="M160.931 154.985L172.267 205.186L99.6237 200.701L119.377 151.4L160.931 154.985Z" fill="#FFB8B8"/>
<path d="M2.58722 343.664C4.74967 351.422 8.12606 358.795 12.5931 365.514C22.575 380.491 36.86 391.944 52.5606 401.111C53.6484 401.754 54.7522 402.381 55.8559 403L66.8696 403L67.2535 402.127L67.2535 402.119L67.7014 401.111L67.7574 400.992L67.7814 401.111L68.2213 403L73.6281 403C74.076 402.373 74.5159 401.746 74.9478 401.111C75.5797 400.182 76.1876 399.246 76.7634 398.293C77.78 396.628 78.6883 394.899 79.4828 393.119C79.5789 392.92 79.6588 392.722 79.7388 392.523L79.3789 392.134L80.8745 385.642L77.8672 385.15L81.1625 375.062C81.0425 374.689 80.9065 374.316 80.7626 373.943C78.9149 369.3 75.4437 365.831 71.3246 362.919C67.0855 359.911 62.1505 357.498 57.6155 354.99C55.4879 353.807 53.3924 352.561 51.3528 351.243L51.3528 351.236C48.7453 349.561 46.2152 347.77 43.7624 345.862C43.7205 345.836 43.6805 345.807 43.6424 345.775C43.6085 345.751 43.5765 345.724 43.5465 345.696C32.5502 337.171 23.2451 326.694 16.1042 314.797C16.1032 314.797 16.1021 314.797 16.1011 314.797C16.1002 314.796 16.0993 314.796 16.0985 314.795C16.0978 314.794 16.0972 314.793 16.0968 314.792C16.0964 314.791 16.0962 314.79 16.0962 314.789C15.8563 314.408 15.6324 314.027 15.4085 313.638L15.4085 313.63C12.4842 308.639 9.96732 303.424 7.88206 298.034L7.88206 298.026C7.72203 297.63 7.57813 297.233 7.42616 296.836C7.2182 297.185 7.01824 297.534 6.82629 297.884C6.82523 297.884 6.82418 297.884 6.8232 297.884C6.82222 297.885 6.82132 297.885 6.82057 297.886C6.81983 297.887 6.81925 297.888 6.81885 297.889C6.81846 297.889 6.81826 297.891 6.81828 297.892C-0.940073 311.662 -1.67595 328.25 2.58722 343.664Z" fill="#F0F0F0"/>
<path d="M6.81835 297.891C6.74066 305.241 7.5108 312.574 9.11375 319.75C9.83411 323.033 10.7313 326.276 11.8013 329.464C13.8784 335.702 16.5933 341.713 19.9035 347.402C20.0874 347.711 20.2635 348.013 20.4554 348.315L20.4554 348.323C21.8701 350.69 23.4051 352.984 25.0544 355.196C27.5505 358.72 30.634 361.796 34.1725 364.292C37.0627 366.187 40.3312 367.44 43.7545 367.966C44.3943 368.085 45.0502 368.173 45.7141 368.252C48.3616 368.562 51.0969 368.681 53.7204 369.236C55.0492 369.497 56.3429 369.91 57.5756 370.467C61.7987 372.411 64.1742 376.483 65.214 380.832C65.398 381.594 65.5418 382.364 65.6538 383.134C66.5257 389.047 65.5659 395.19 66.0618 401.111C66.1177 401.738 66.1897 402.373 66.2776 403L66.8696 403L67.2535 402.127L67.2535 402.119C67.2136 401.786 67.1815 401.452 67.1495 401.111C66.9576 398.202 66.9335 395.284 67.0775 392.372C67.1095 391.063 67.1335 389.745 67.1175 388.428C67.1015 387.372 67.0615 386.317 66.9816 385.269L66.9816 385.261C66.9255 384.61 66.8616 383.967 66.7736 383.324C66.5196 381.356 66.0309 379.424 65.3179 377.57C64.6221 375.66 63.5269 373.917 62.1044 372.456C60.6818 370.995 58.964 369.849 57.0637 369.093C55.9028 368.661 54.7066 368.33 53.4883 368.101C50.809 367.593 48.0416 367.466 45.3461 367.133C45.0582 367.101 44.7702 367.062 44.4903 367.014C44.1303 366.958 43.7785 366.895 43.4266 366.831C39.8999 366.21 36.5688 364.778 33.7005 362.649C30.292 359.971 27.3285 356.778 24.9184 353.188C23.6068 351.323 22.3589 349.418 21.1993 347.457C21.1993 347.456 21.1991 347.455 21.1987 347.454C21.1983 347.453 21.1977 347.452 21.197 347.452C21.1962 347.451 21.1953 347.45 21.1944 347.45C21.1934 347.45 21.1923 347.449 21.1913 347.449C21.1352 347.354 21.0793 347.267 21.0233 347.172L21.0153 347.156C16.0407 338.72 12.4093 329.572 10.2495 320.035C10.1775 319.686 10.0975 319.337 10.0176 318.988C8.53312 312.102 7.81696 305.075 7.88208 298.034L7.88208 298.026C7.88208 297.693 7.88999 297.368 7.89799 297.034C7.91399 296.352 6.85027 296.201 6.83435 296.883C6.82635 297.217 6.81836 297.55 6.82636 297.883C6.8253 297.883 6.82424 297.884 6.82326 297.884C6.82227 297.884 6.82138 297.885 6.82063 297.886C6.81989 297.886 6.81929 297.887 6.8189 297.888C6.81851 297.889 6.81833 297.89 6.81835 297.891Z" fill="white"/>
<path d="M20.912 348.099C17.8642 349.636 14.3654 350.047 11.0404 349.259C7.71539 348.472 4.78069 346.537 2.76041 343.801C2.35354 343.246 3.20365 342.592 3.61106 343.148C5.4876 345.7 8.22147 347.502 11.3192 348.229C14.417 348.955 17.6746 348.56 20.5041 347.112C21.1193 346.799 21.5237 347.787 20.912 348.099Z" fill="white"/>
<path d="M43.3239 367.148C45.551 360.575 45.1999 353.411 42.3405 347.084C42.0567 346.457 43.0516 346.053 43.3351 346.679C46.2983 353.269 46.6484 360.725 44.3157 367.559C44.0929 368.211 43.1023 367.795 43.3238 367.148H43.3239Z" fill="white"/>
<path d="M9.70857 319.085C11.0126 318.735 12.2085 318.068 13.1889 317.146C14.1693 316.223 14.9034 315.073 15.3253 313.8C15.5396 313.146 16.53 313.562 16.3171 314.211C15.8443 315.617 15.032 316.885 13.9511 317.907C12.8703 318.929 11.5537 319.672 10.1165 320.072C9.98426 320.121 9.83815 320.118 9.70789 320.064C9.57763 320.01 9.47299 319.909 9.41526 319.781C9.36191 319.65 9.36279 319.504 9.41771 319.373C9.47264 319.243 9.57718 319.139 9.70859 319.085H9.70857Z" fill="white"/>
<path d="M51.3529 351.235L51.3529 351.243C51.6009 356.911 52.3151 362.549 53.4883 368.101L53.4883 368.109C53.5524 368.49 53.6404 368.863 53.7203 369.236C55.6508 377.823 58.3572 386.22 61.8067 394.325C62.7584 396.611 63.7556 398.873 64.7981 401.111C65.0859 401.746 65.3819 402.373 65.6858 403L66.8696 403L67.2535 402.127L67.2535 402.119L67.7014 401.111L67.7574 400.992L67.7814 401.111L68.2213 403L79.6588 403L81.8823 401.111L85.1216 398.357L80.5946 393.452L79.8508 392.642L79.7388 392.523L79.3789 392.134L80.8745 385.642L77.8672 385.15L81.1625 375.062L82.7222 370.292L83.1141 369.093L85.3937 362.117L92.2721 363.395L93.392 359.506C91.3302 354.763 89.6142 349.88 88.2571 344.894C88.2491 344.854 88.2331 344.822 88.2251 344.783C84.591 331.352 83.5008 317.368 85.0099 303.543L85.0099 303.535C85.0578 303.09 85.1137 302.638 85.1778 302.201L85.1778 302.185C85.8634 296.456 87.019 290.791 88.6331 285.248C88.7451 284.827 88.873 284.415 88.9931 284.002C88.6251 284.161 88.2652 284.312 87.8972 284.47L87.8892 284.478L87.8732 284.478C87.2893 284.732 86.7054 285.002 86.1376 285.288C72.4925 291.867 62.4546 304.217 56.7518 318.456C56.7358 318.496 56.7199 318.527 56.7038 318.567C53.7282 326.031 51.9549 333.914 51.449 341.926C51.2572 345.025 51.2251 348.133 51.3529 351.235Z" fill="#F0F0F0"/>
<path d="M72.1084 403L73.3722 403C73.7722 402.357 74.2041 401.73 74.636 401.111C75.3238 400.151 76.033 399.211 76.7635 398.293C77.3954 397.5 78.0273 396.714 78.6591 395.928C79.3149 395.111 79.9628 394.293 80.5947 393.452L79.8509 392.642C79.7309 392.801 79.611 392.96 79.4829 393.118C77.4354 395.793 75.2199 398.365 73.3242 401.111C72.9003 401.73 72.4924 402.357 72.1084 403Z" fill="white"/>
<path d="M89.2584 284.445C89.0504 284.707 88.8345 284.977 88.6345 285.247C87.0749 287.255 85.6005 289.327 84.2115 291.462C81.7376 295.229 79.5404 299.168 77.6369 303.248C77.4849 303.565 77.3329 303.891 77.189 304.216C73.1156 313.132 70.4605 322.621 69.3186 332.345C69.3026 332.44 69.2946 332.527 69.2866 332.622C69.0227 334.892 68.8521 337.17 68.7747 339.456C68.5197 343.761 68.9488 348.078 70.0465 352.25C70.2064 352.798 70.3824 353.338 70.5744 353.862C71.0555 355.145 71.6581 356.381 72.374 357.552C72.8884 358.407 73.4602 359.226 74.0856 360.005C74.4615 360.481 74.8535 360.949 75.2694 361.402C75.5093 361.664 75.7573 361.926 76.0052 362.187C76.2132 362.386 76.4131 362.592 76.6211 362.791C78.7806 364.87 81.1641 366.799 83.1157 369.093L82.7238 370.291C80.8442 367.926 78.4207 365.965 76.2372 363.902C74.8664 362.623 73.6186 361.22 72.5099 359.711C72.366 359.505 72.214 359.298 72.078 359.084C71.337 358.01 70.6971 356.87 70.1665 355.679C69.8945 355.084 69.6466 354.473 69.4226 353.838C68.1159 349.734 67.5209 345.44 67.663 341.139C67.6887 338.383 67.8542 335.631 68.1589 332.892C68.1909 332.535 68.2309 332.186 68.2789 331.829C69.0899 325.31 70.5693 318.89 72.6939 312.669C75.383 304.777 79.0818 297.26 83.6996 290.303C85.0193 288.311 86.419 286.366 87.8987 284.469C88.0907 284.207 88.2906 283.953 88.4986 283.691C88.9224 283.152 89.6823 283.906 89.2584 284.445Z" fill="white"/>
<path d="M68.6596 332.993C65.2941 332.398 62.251 330.636 60.0739 328.021C57.8968 325.406 56.7274 322.108 56.7745 318.716C56.7777 318.578 56.8349 318.446 56.934 318.349C57.0332 318.251 57.1664 318.196 57.3058 318.194C57.4452 318.193 57.5799 318.245 57.6813 318.34C57.7828 318.435 57.8432 318.565 57.8497 318.703C57.8 321.861 58.8896 324.933 60.9219 327.364C62.9543 329.796 65.7954 331.426 68.9327 331.961C69.6143 332.078 69.3373 333.109 68.6595 332.993L68.6596 332.993Z" fill="white"/>
<path d="M74.9972 361.591C80.7632 357.674 84.8295 351.744 86.3853 344.984C86.5388 344.314 87.5784 344.586 87.4251 345.255C85.7929 352.287 81.5486 358.449 75.5392 362.513C74.9662 362.899 74.4272 361.976 74.9971 361.591L74.9972 361.591Z" fill="white"/>
<path d="M77.3181 303.133C78.572 303.632 79.9312 303.814 81.2737 303.663C82.6161 303.513 83.8998 303.033 85.0095 302.268C85.5773 301.874 86.1157 302.798 85.5516 303.19C84.3217 304.029 82.9033 304.557 81.4204 304.727C79.9376 304.897 78.4353 304.704 77.045 304.165C76.9096 304.125 76.7947 304.035 76.7235 303.914C76.6523 303.793 76.6302 303.65 76.6616 303.513C76.6985 303.377 76.7881 303.26 76.911 303.189C77.0339 303.118 77.1802 303.098 77.3181 303.133Z" fill="white"/>
<path d="M148.834 386.681L156.994 386.68L160.876 355.447L148.833 355.447L148.834 386.681Z" fill="#FFB8B8"/>
<path d="M146.071 382.686L158.97 381.922L158.97 387.406L171.234 395.811C171.84 396.226 172.296 396.822 172.536 397.513C172.776 398.203 172.787 398.952 172.568 399.649C172.349 400.347 171.911 400.956 171.318 401.389C170.725 401.822 170.008 402.056 169.272 402.055L153.915 402.055L151.268 396.631L150.235 402.055L144.444 402.055L146.071 382.686Z" fill="#2F2E41"/>
<path d="M71.7104 382.652L79.6855 384.368L90.1513 354.662L78.3818 352.129L71.7104 382.652Z" fill="#FFB8B8"/>
<path d="M69.8635 378.167L82.6329 380.134L81.4612 385.493L91.6505 396.287C92.1539 396.82 92.4723 397.499 92.5593 398.224C92.6464 398.95 92.4975 399.684 92.1344 400.319C91.7713 400.954 91.2131 401.458 90.5411 401.756C89.8692 402.055 89.1188 402.132 88.3994 401.977L73.3914 398.746L71.9635 392.888L69.7945 397.972L64.1358 396.754L69.8635 378.167Z" fill="#2F2E41"/>
<path d="M14.2407 402.055C14.2403 402.18 14.2647 402.303 14.3124 402.417C14.3601 402.532 14.4302 402.636 14.5187 402.724C14.6071 402.812 14.7122 402.881 14.8279 402.929C14.9435 402.976 15.0675 403 15.1926 403L239.377 403C239.63 403 239.872 402.9 240.05 402.723C240.229 402.546 240.329 402.306 240.329 402.055C240.329 401.805 240.229 401.565 240.05 401.388C239.872 401.21 239.63 401.111 239.377 401.111L15.1926 401.111C15.0675 401.111 14.9435 401.135 14.8279 401.182C14.7122 401.229 14.6071 401.299 14.5187 401.387C14.4302 401.475 14.3601 401.579 14.3124 401.694C14.2647 401.808 14.2403 401.931 14.2407 402.055Z" fill="#CCCCCC"/>
<path d="M174.121 247.164C168.395 278.396 166.963 291.881 166.963 291.881C166.963 291.881 171.258 296.849 168.395 299.691C165.531 302.532 168.395 308.207 168.395 308.207L160.899 367.606L159.299 376.336L144.288 374.234L146.502 366.018L142.648 308.922C142.648 308.922 139.785 303.239 141.216 301.818C142.648 300.397 139.785 291.881 139.785 291.881L136.209 224.449L114.03 298.27C114.03 298.27 116.182 301.112 114.03 303.239C111.887 305.366 107.599 316.017 107.599 316.017L91.3135 358.875L88.1142 365.225L86.412 364.424L78.9255 363.027L77.5498 362.773L75.1023 362.313L73.5267 362.019L72.9908 361.924L70.3993 361.44L71.1832 357.988L76.9165 349.351L82.7487 306.993L83.0046 305.858L83.2765 304.659C83.2765 304.659 81.8448 301.112 83.9884 298.977C84.6154 298.326 85.0735 297.533 85.3229 296.668C85.5724 295.802 85.6057 294.889 85.4201 294.008C85.3499 293.934 85.2857 293.854 85.2281 293.77C84.9749 293.425 84.8003 293.03 84.7162 292.611C84.5242 291.722 84.6922 290.476 86.1399 289.04C86.5476 288.61 86.8898 288.123 87.1557 287.595C89.3312 283.508 90.427 274.848 90.427 274.848C90.427 274.848 92.3626 206.265 98.6973 195.789C99.0332 195.241 105.758 184.727 106.11 184.513C113.26 180.259 169.067 185.341 169.067 185.341C169.067 185.341 172.442 194.336 172.594 195.273C173.418 200.535 178.976 220.671 174.121 247.164Z" fill="#CE3A13"/>
<path d="M232.033 94.6865C231.907 95.6726 231.565 96.6194 231.031 97.4602C230.497 98.301 229.783 99.0153 228.941 99.5529C228.098 100.09 227.147 100.438 226.155 100.572C225.162 100.705 224.152 100.621 223.196 100.325L208.729 119.758L204.372 107.971L218.778 91.3236C219.385 89.7624 220.548 88.4766 222.047 87.7097C223.546 86.9428 225.277 86.7482 226.91 87.1627C228.544 87.5773 229.968 88.5721 230.912 89.9588C231.856 91.3455 232.255 93.0276 232.033 94.6865H232.033Z" fill="#FFB8B8"/>
<path d="M100.027 177.004C98.7006 177.004 97.9473 176.746 97.6555 176.193C97.2275 175.381 97.9703 174.319 98.8303 173.09C99.4684 172.288 99.9716 171.388 100.321 170.426C100.835 168.385 104.306 116.815 102.23 106.511C101.75 104.127 102.163 101.07 103.459 97.4275C106.997 87.4785 111.828 84.4208 121.45 78.3301C122.231 77.8356 123.045 77.3191 123.89 76.7807C124.984 76.0831 124.923 73.7702 124.859 71.321C124.787 68.5989 124.713 65.7838 126.057 64.0243L126.144 63.9096L126.285 63.877C129.536 63.1314 140.468 61.7471 146.943 63.8871L147.032 63.9173L147.099 63.9832C148.637 65.5094 148.777 68.4656 148.913 71.3241C149.024 73.671 149.129 75.887 149.999 76.8497C156.651 84.2076 164.195 84.0642 164.272 84.0627L164.646 84.0518L164.683 84.4207C167.576 113.627 172.241 157.709 173.232 159.443C173.284 159.523 173.313 159.615 173.316 159.709C173.319 159.804 173.295 159.897 173.249 159.98C171.793 162.678 105.026 177.004 100.027 177.004Z" fill="#629EF8"/>
<path d="M143.477 55.6098C154.373 55.6098 163.206 46.8443 163.206 36.0315C163.206 25.2187 154.373 16.4532 143.477 16.4532C132.58 16.4532 123.747 25.2187 123.747 36.0315C123.747 46.8443 132.58 55.6098 143.477 55.6098Z" fill="#FFB8B8"/>
<path d="M156.659 71.8197C155.723 70.4944 150.98 54.305 148.901 49.3357C148.689 50.4036 146.305 54.5442 146.249 55.6461L146.229 56.0543L145.82 56.1068C145.206 56.1846 130.695 57.9324 123.143 49.435C118.669 44.4017 117.654 36.852 120.123 26.9912C119.674 26.9037 119.244 26.7392 118.852 26.5052C118.199 26.0567 117.652 25.4722 117.25 24.7925C116.848 24.1129 116.6 23.3543 116.524 22.5699L116.106 22.6811C113.977 23.2512 111.575 24.0055 110.024 25.7466C108.296 27.6829 107.989 30.3139 107.663 33.0991C107.536 34.4288 107.325 35.7492 107.03 37.0525C105.978 41.2647 103.016 45.21 98.226 48.779C93.404 52.3725 88.4876 54.4282 83.6131 54.8879C77.8558 55.4331 72.3034 53.556 68.7654 49.8709C64.8199 45.7623 63.7879 39.441 66.3108 34.8407L66.7169 34.0997L67.1628 34.8177C69.4086 38.4346 74.3158 40.3881 79.0975 39.567C83.1974 38.8633 87.2618 36.2801 90.5419 32.2932C93.5363 28.6539 95.6016 24.3558 97.5992 20.1991C99.6309 15.9726 101.731 11.6019 104.757 7.89342C108.17 3.71038 112.429 0.978645 116.75 0.200478C119.897 -0.363836 122.705 0.275889 124.456 1.95925C125.692 3.22418 126.425 4.89121 126.517 6.6512C127.593 6.41253 128.716 6.47652 129.757 6.83597C130.762 7.24158 131.637 7.90939 132.291 8.76861C132.944 9.62784 133.351 10.6465 133.468 11.7165C139.809 8.40711 148.2 8.94563 152.54 11.4286C154.357 12.4684 155.4 13.7779 155.586 15.2388C160.712 15.5229 166.225 20.4779 166.225 27.4982L166.225 27.987L165.733 27.987C161.675 27.987 157.971 30.3024 155.824 34.1804C154.564 36.4404 153.94 38.9957 154.018 41.5776C154.097 44.1596 154.874 46.6729 156.27 48.8535C157.789 51.1665 158.826 53.7576 159.32 56.4744C159.814 59.1911 159.755 61.9786 159.147 64.6724L157.296 72.722L156.659 71.8197Z" fill="#2F2E41"/>
<path d="M179.307 145.04L166.302 137.781C143.623 122.182 138.036 109.795 137.338 102.146C136.593 93.9853 140.975 89.5216 141.162 89.3364L141.263 89.2627L152.986 83.3186C154.476 82.5636 156.11 82.1314 157.78 82.0505C159.45 81.9697 161.119 82.2421 162.675 82.8497C164.231 83.4573 165.639 84.3862 166.806 85.5748C167.973 86.7634 168.872 88.1845 169.444 89.7441L180.288 119.339L192.311 110.54L197.438 108.535L201.575 103.045L212.939 96.4679L221.38 104.007L210.764 125.076L204.866 126.566L203.615 129.763L203.504 129.834L179.307 145.04Z" fill="#629EF8"/>
</g>
<defs>
<clipPath id="clip0_11_356">
<rect width="628" height="403" fill="white"/>
</clipPath>
</defs>
</svg>
